{"accessors":[{"name":"torch_Cylinder.003-Mesh_positions","componentType":5126,"count":710,"min":[-0.3198460042476654,-0.03189900144934654,-0.3802950084209442],"max":[0.19320400059223175,2.1785240173339844,0.23446999490261078],"type":"VEC3","bufferView":0,"byteOffset":0},{"name":"torch_Cylinder.003-Mesh_normals","componentType":5126,"count":710,"min":[-0.9994000196456909,-0.9962000250816345,-0.998199999332428],"max":[0.9994999766349792,0.9997000098228455,0.9843000173568726],"type":"VEC3","bufferView":0,"byteOffset":8520},{"name":"torch_Cylinder.003-Mesh_texcoords","componentType":5126,"count":710,"min":[0.01614600047469139,0.01614600047469139],"max":[0.9693120121955872,0.9838539958000183],"type":"VEC2","bufferView":1,"byteOffset":0},{"name":"torch_Cylinder.003-Mesh_0_indices","componentType":5123,"count":1296,"min":[0],"max":[709],"type":"SCALAR","bufferView":2,"byteOffset":0}],"asset":{"generator":"obj2gltf","version":"2.0"},"buffers":[{"name":"torch","byteLength":25312,"uri":"data:application/octet-stream;base64,"}],"bufferViews":[{"name":"bufferView_0","buffer":0,"byteLength":17040,"byteOffset":0,"byteStride":12,"target":34962},{"name":"bufferView_1","buffer":0,"byteLength":5680,"byteOffset":17040,"byteStride":8,"target":34962},{"name":"bufferView_2","buffer":0,"byteLength":2592,"byteOffset":22720,"target":34963}],"materials":[{"name":"wood_mat","pbrMetallicRoughness":{"baseColorFactor":[0.5595,0.488727,0.414566,1],"metallicFactor":0,"roughnessFactor":0.903921569},"emissiveFactor":[0,0,0],"alphaMode":"OPAQUE","doubleSided":false}],"meshes":[{"name":"torch_Cylinder.003-Mesh","primitives":[{"attributes":{"POSITION":0,"NORMAL":1,"TEXCOORD_0":2},"indices":3,"material":0,"mode":4}]}],"nodes":[{"name":"torch_Cylinder.003","mesh":0}],"scene":0,"scenes":[{"nodes":[0]}]}
